<svg width="268" height="465" viewBox="0 0 268 465" fill="none" xmlns="http://www.w3.org/2000/svg">
<path d="M128 142H141V465H128V142Z" fill="black"/>
<path fill-rule="evenodd" clip-rule="evenodd" d="M123 141.505C123 139.017 125.239 137 128 137H141C143.761 137 146 139.017 146 141.505V460.495C146 462.983 143.761 465 141 465H128C125.239 465 123 462.983 123 460.495V141.505ZM133 146.011V455.989H136V146.011H133Z" fill="black"/>
<path d="M134.768 2C40.404 1.99988 2 68.6124 2 68.6124V118.073L50.8279 131.037L99.6559 144H134.768H169.002L217.501 131.037L266 118.073V68.6124C266 68.6124 229.132 2.00012 134.768 2Z" fill="#F0C4C4"/>
<path fill-rule="evenodd" clip-rule="evenodd" d="M3.5 69.0263V116.919L99.8516 142.5H168.805L264.5 116.921V69.0124C264.44 68.9101 264.366 68.7845 264.277 68.6367C263.994 68.1646 263.562 67.4655 262.977 66.5717C261.806 64.784 260.023 62.2183 257.588 59.1337C252.716 52.9636 245.239 44.7242 234.839 36.4818C214.053 20.0086 181.566 3.50006 134.768 3.5C87.9684 3.49994 55.0931 20.0097 33.9188 36.4899C23.3251 44.7351 15.6552 52.9775 10.6392 59.1501C8.13152 62.236 6.28848 64.8028 5.07618 66.5916C4.47008 67.486 4.02178 68.1856 3.72705 68.6581C3.63709 68.8023 3.56145 68.9254 3.5 69.0263ZM266 68.6124L267.312 67.886L267.5 68.225V119.225L169.199 145.5H99.4601L0.5 119.227V68.2109L0.7005 67.8632L2 68.6124C0.7005 67.8632 0.701036 67.8622 0.701719 67.8611L0.703822 67.8574L0.71068 67.8456L0.735031 67.804C0.756001 67.7683 0.786453 67.7169 0.826455 67.6501C0.906457 67.5166 1.02467 67.3221 1.18162 67.0704C1.49552 66.5672 1.96446 65.8357 2.59277 64.9086C3.8493 63.0545 5.74379 60.4173 8.31097 57.2582C13.4445 50.941 21.2734 42.5303 32.0762 34.1224C53.6949 17.2964 87.2036 0.499939 134.768 0.5C182.334 0.500061 215.463 17.2977 236.702 34.1307C247.315 42.5414 254.952 50.955 259.942 57.2747C262.438 60.435 264.272 63.0734 265.487 64.9285C266.094 65.8562 266.546 66.5882 266.849 67.0919C267 67.3438 267.114 67.5386 267.191 67.6723C267.229 67.7391 267.259 67.7907 267.279 67.8265L267.303 67.8683L267.309 67.8802L267.311 67.8838C267.312 67.885 267.312 67.886 266 68.6124Z" fill="#C06510"/>
<path d="M74 44H195V116H74V44Z" fill="#F0C4C4"/>
<path fill-rule="evenodd" clip-rule="evenodd" d="M192 47H77V113H192V47ZM74 44V116H195V44H74Z" fill="#C76237"/>
<rect x="123" y="122" width="23" height="16" fill="#CCBBBB"/>
<path d="M185.75 131C185.75 131.326 185.598 131.771 185.039 132.344C184.476 132.92 183.581 133.536 182.319 134.162C179.8 135.41 176.074 136.568 171.367 137.555C161.973 139.523 148.938 140.75 134.5 140.75C120.062 140.75 107.027 139.523 97.6332 137.555C92.9261 136.568 89.1998 135.41 86.6806 134.162C85.4186 133.536 84.524 132.92 83.9609 132.344C83.4021 131.771 83.25 131.326 83.25 131C83.25 130.674 83.4021 130.229 83.9609 129.656C84.524 129.08 85.4186 128.464 86.6806 127.838C89.1998 126.59 92.9261 125.432 97.6332 124.445C107.027 122.477 120.062 121.25 134.5 121.25C148.938 121.25 161.973 122.477 171.367 124.445C176.074 125.432 179.8 126.59 182.319 127.838C183.581 128.464 184.476 129.08 185.039 129.656C185.598 130.229 185.75 130.674 185.75 131Z" stroke="#C9BDBD" stroke-width="2.5"/>
<path d="M186.75 129C186.75 129.318 186.599 129.76 186.027 130.335C185.452 130.913 184.537 131.531 183.249 132.157C180.678 133.407 176.877 134.567 172.078 135.554C162.502 137.523 149.215 138.75 134.5 138.75C119.785 138.75 106.498 137.523 96.9215 135.554C92.123 134.567 88.322 133.407 85.7508 132.157C84.4625 131.531 83.5484 130.913 82.9729 130.335C82.4009 129.76 82.25 129.318 82.25 129C82.25 128.682 82.4009 128.24 82.9729 127.665C83.5484 127.087 84.4625 126.469 85.7508 125.843C88.322 124.593 92.123 123.433 96.9215 122.446C106.498 120.477 119.785 119.25 134.5 119.25C149.215 119.25 162.502 120.477 172.078 122.446C176.877 123.433 180.678 124.593 183.249 125.843C184.537 126.469 185.452 127.087 186.027 127.665C186.599 128.24 186.75 128.682 186.75 129Z" stroke="#CCBBBB" stroke-width="2.5"/>
<path d="M186.75 127C186.75 127.318 186.599 127.76 186.027 128.335C185.452 128.913 184.537 129.531 183.249 130.157C180.678 131.407 176.877 132.567 172.078 133.554C162.502 135.523 149.215 136.75 134.5 136.75C119.785 136.75 106.498 135.523 96.9215 133.554C92.123 132.567 88.322 131.407 85.7508 130.157C84.4625 129.531 83.5484 128.913 82.9729 128.335C82.4009 127.76 82.25 127.318 82.25 127C82.25 126.682 82.4009 126.24 82.9729 125.665C83.5484 125.087 84.4625 124.469 85.7508 123.843C88.322 122.593 92.123 121.433 96.9215 120.446C106.498 118.477 119.785 117.25 134.5 117.25C149.215 117.25 162.502 118.477 172.078 120.446C176.877 121.433 180.678 122.593 183.249 123.843C184.537 124.469 185.452 125.087 186.027 125.665C186.599 126.24 186.75 126.682 186.75 127Z" stroke="white" stroke-width="2.5"/>
</svg>
